<svg xmlns="http://www.w3.org/2000/svg" version="1.1" xmlns:xlink="http://www.w3.org/1999/xlink" xmlns:svgjs="http://svgjs.dev/svgjs" viewBox="0 0 8.389467638605346 8.259704571533812"><g transform="matrix(0.8561820755285058,0,0,0.8561820755285058,1.197224695715347,6.140712996170856)"><g clip-path="url(#SvgjsClipPath57948)"><g clip-path="url(#SvgjsClipPath5794696c324f5-419a-4307-8495-3fa5c3090337)"><path d=" M 3.8152778910807896 -5.784773554022214 L 3.4834028632075293 -5.209100734972418 L 3.8547364931209227 -4.56648921603311 L 3.8547364931209227 -4.56648921603311 C 3.8697406796343152 -4.540250513281147 3.866338745995666 -4.507365154774201 3.8462810783980372 -4.4847535403785495 C 3.8103629926142237 -4.447325026089258 3.797911866925539 -4.3931896970080215 3.813868655293642 -4.343829961663789 C 3.8270939499211782 -4.2945752889638396 3.8658988162405405 -4.256309379121134 3.91533363196827 -4.243774220776309 L 4.853180048315 -3.9795425106861337 C 4.8907453722069585 -3.968948715985248 4.930984642819898 -3.9737764547530565 4.964977940068795 -3.992955552422667 C 4.998971237317691 -4.012134650092277 5.023910303978712 -4.044080681381763 5.034266846963467 -4.081712105254335 L 5.293566231798626 -5.025195464749656 C 5.30921513340917 -5.081892093055725 5.28945404069321 -5.1424518627012 5.243376506361374 -5.179006706604456 C 5.197298972029538 -5.215561550507713 5.13383175813734 -5.2210295707713765 5.082180863726485 -5.19289452342022 C 5.0487977061786795 -5.176435817046917 5.008371099659215 -5.1887798190375936 4.989875919668318 -5.221079239163172 L 4.746078128491782 -5.643849975307454 C 4.7218729409673585 -5.68669047517783 4.686581665284251 -5.722225138969097 4.643908533923581 -5.746724187769229 L 4.643908533923581 -5.746724187769229 C 4.601209793546713 -5.771233074418032 4.552920428585649 -5.784336721191386 4.5036895731023945 -5.784773554022214 Z" fill="#431a10" transform="matrix(1,0,0,1,0,0)" fill-rule="evenodd"></path></g><g clip-path="url(#SvgjsClipPath5794696c324f5-419a-4307-8495-3fa5c3090337)"><path d=" M 3.032447411320296 -4.708117412641445 L 3.032447411320296 -4.712345120002888 L 3.337546959237752 -5.240808540183239 L 3.337546959237752 -5.240808540183239 L 3.337546959237752 -5.246445483331829 L 3.337546959237752 -5.246445483331829 L 3.653215775558816 -5.784773554022214 L 2.4997562837785017 -5.784773554022214 C 2.4503833185718467 -5.785114541751246 2.4017870317212804 -5.7724795071700985 2.358832705063741 -5.748133423556377 C 2.3158643834995725 -5.723390317601512 2.280521223960281 -5.68731592027865 2.2566631104955395 -5.643849975307454 L 1.737359722931648 -4.751099104149446 L 1.737359722931648 -4.751099104149446 C 1.7008799272482222 -4.6869518557605945 1.6910134607049718 -4.6110559592740525 1.7098796250822694 -4.5397137360773065 C 1.728809688234718 -4.467923444317018 1.7757750190748736 -4.406741580898221 1.8402339353934234 -4.369900823726019 L 2.3419218756179703 -4.079598251573614 C 2.3734966238766395 -4.060794874257654 2.40844389425144 -4.0483479012474515 2.4447960880797455 -4.042958121107777 C 2.481642110291587 -4.038849925282782 2.5189322521823208 -4.041718397735915 2.5547164794772588 -4.051413535830662 C 2.5904906271014 -4.060576481218266 2.624044287624192 -4.0768739734721935 2.6533629845775906 -4.09932755259368 C 2.6819655462499137 -4.121987215003243 2.7058957245713606 -4.1499855236393355 2.723824773934971 -4.181767846141815 L 2.7238247739349712 -4.181767846141815 Z" fill="#3e7742" transform="matrix(1,0,0,1,0,0)" fill-rule="evenodd"></path></g><g clip-path="url(#SvgjsClipPath5794696c324f5-419a-4307-8495-3fa5c3090337)"><path d=" M 5.8347127740633065 -1.1963018310696167 L 5.50354236408362 -1.7684515606515427 L 4.767216665298997 -1.7684515606515427 L 4.760875104256833 -1.7684515606515427 C 4.731063638037834 -1.7698651983911615 4.7053764175585595 -1.7899068759079588 4.6967548759416164 -1.818479431095283 C 4.682164757787011 -1.8673834011124115 4.6422750104117965 -1.904577895286597 4.5924714276926935 -1.9157167004084688 C 4.542206958913305 -1.9304210614514528 4.487933968818691 -1.9160387190763797 4.451547848977934 -1.878371952049056 L 3.753976134339869 -1.198415684750338 C 3.7258335652552286 -1.171276716406033 3.70982889509774 -1.1339324860385602 3.7095852070447193 -1.0948368543949893 C 3.7085857580585917 -1.0557132835444074 3.7239008419613597 -1.017936076584248 3.7518622806591484 -0.9905534061460664 L 4.439569344787179 -0.29439092729514993 C 4.480503650925157 -0.2524854035238331 4.542537431405475 -0.23913615875646776 4.597085685786469 -0.2604944893450831 C 4.6516339401674625 -0.2818528199336976 4.688111143160877 -0.33377397090626904 4.689708697005879 -0.39233281450190827 C 4.689708697005879 -0.431247786209779 4.721255514655387 -0.4627946038592885 4.760170486363258 -0.4627946038592885 L 5.2470614508227555 -0.4627946038592885 C 5.296471827435187 -0.4621489689868685 5.3451464148693155 -0.47480436171974194 5.387985029537517 -0.499434734325126 C 5.430339643449571 -0.5246547410326201 5.465517156558318 -0.5603174612187285 5.490154624105717 -0.6030135646804746 Z" fill="#431a10" transform="matrix(1,0,0,1,0,0)" fill-rule="evenodd"></path></g><g clip-path="url(#SvgjsClipPath5794696c324f5-419a-4307-8495-3fa5c3090337)"><path d=" M 5.606416576545395 -1.8720303910068923 L 5.915743831824295 -1.3358161739972294 L 6.493530504554812 -2.3321458755105846 C 6.518861965347171 -2.374826782108497 6.532473682421546 -2.4234400573741226 6.532989106594945 -2.473069454225344 C 6.532745999108026 -2.5227373164548013 6.5191146616287545 -2.571420664595045 6.493530504554805 -2.613993032940117 L 5.980568678033084 -3.505334668310965 L 5.980568678033084 -3.505334668310965 C 5.902690341222777 -3.6390203130128156 5.731606039422884 -3.6849363204811687 5.597256543928936 -3.60820888077274 L 5.095568603704389 -3.3193155444074813 C 5.063459671281322 -3.3015679464775762 5.035197424162607 -3.2776168895973097 5.01242369226268 -3.248853755050101 L 5.01242369226268 -3.248853755050101 C 4.9902040092253 -3.2194867256880353 4.974146330441452 -3.1859333670352195 4.965214293393235 -3.150207249949769 C 4.955541188821492 -3.114659654296986 4.952672389595524 -3.0776043309615724 4.95675887867035 -3.0409914764458295 C 4.961531970485187 -3.005683147136285 4.973267593710965 -2.9716737900330106 4.991285155455466 -2.94093573555835 L 4.991285155455466 -2.94093573555835 L 5.605711958651822 -1.877667334155483 L 5.605711958651822 -1.877667334155483 L 5.605711958651822 -1.877667334155483 Z" fill="#3e7742" transform="matrix(1,0,0,1,0,0)" fill-rule="evenodd"></path></g><g clip-path="url(#SvgjsClipPath5794696c324f5-419a-4307-8495-3fa5c3090337)"><path d=" M 0.8516550307093786 -1.7402668449085912 L 1.5154050864559 -1.7402668449085912 L 1.8832156269014246 -2.3793552743800297 L 1.8832156269014246 -2.3835829817414727 C 1.8986103737807731 -2.4096865794700744 1.9289716212092785 -2.4230228283405393 1.9586097415138215 -2.4167000227394415 C 2.0082983647614547 -2.4056644933617104 2.060145881122448 -2.4213300178557664 2.095410267808148 -2.4580337672633314 C 2.1306746544938484 -2.494737516670898 2.144254580153403 -2.5471699420349623 2.131241125439403 -2.596377585600761 L 1.8930802774114581 -3.541270180883229 C 1.883307129171254 -3.5789490672159117 1.8589463221233093 -3.611192307201065 1.8253711363766971 -3.630887987028802 C 1.7917959506300851 -3.6505836668565395 1.7517647817567383 -3.656113672588994 1.7141073324437124 -3.646258247025725 L 0.7671008834805224 -3.399641984274895 C 0.7100119337611162 -3.385058733781374 0.6672071485572892 -3.337705097455454 0.6584440579636128 -3.2794382319290794 C 0.6496809673699363 -3.221171366402704 0.6766636632187892 -3.1633219875437955 0.7269376635468157 -3.1325918026104236 C 0.7597238247065669 -3.112530114781352 0.7703828433850128 -3.069894040067569 0.750894671928325 -3.0367637690843874 L 0.5078014986453634 -2.613993032940106 C 0.48271675408624076 -2.571243354400502 0.46934930410479464 -2.5226344453770615 0.4690475144988043 -2.473069454225346 L 0.4690475144988042 -2.473069454225346 C 0.4693493041047933 -2.423504463073636 0.48271675408623826 -2.374895554050195 0.5078014986453597 -2.3321458755105904 Z" fill="#431a10" transform="matrix(1,0,0,1,0,0)" fill-rule="evenodd"></path></g><g clip-path="url(#SvgjsClipPath5794696c324f5-419a-4307-8495-3fa5c3090337)"><path d=" M 1.9776344246403144 -1.6007525019809794 L 0.9319814705767921 -1.6007525019809794 L 1.5083589075201622 -0.6001950931061799 C 1.5568536568270368 -0.5116452028277125 1.6505108299155016 -0.45735118944309594 1.751452080803124 -0.45927151439141944 L 2.78301267699517 -0.45927151439141944 C 2.857763190759881 -0.45927151439141944 2.9294521180915316 -0.48896604036416846 2.982308713271737 -0.5418226355443743 C 3.0351653084519423 -0.5946792307245792 3.0648598344246913 -0.6663681580562297 3.0648598344246905 -0.7411186718209404 L 3.0648598344246905 -1.319609962445032 C 3.0651768811844753 -1.3565371232052463 3.058234028330061 -1.393166657230263 3.0444259155110514 -1.4274165001618204 C 3.030096326504243 -1.4615854655397955 3.0090048120083135 -1.4925037083804185 2.982419540876556 -1.5183122084328442 C 2.956548259630073 -1.544499422912482 2.9259433641996604 -1.565540288520891 2.892228450499109 -1.5803185830673394 L 2.892228450499109 -1.5803185830673394 C 2.857710290000534 -1.5939768517954525 2.820834003707706 -1.6006816311214216 2.7837172948887434 -1.600047884087405 L 1.9776344246403144 -1.600047884087405 Z" fill="#3e7742" transform="matrix(1,0,0,1,0,0)" fill-rule="evenodd"></path></g></g><g><path d=" M 0.426 0.008999999999999897 L 0.6945 0.008999999999999897 L 0.792 0.3374999999999998 L 0.891 0.008999999999999897 L 1.1595 0.008999999999999897 L 0.9795 0.5174999999999998 L 1.056 0.7349999999999999 L 1.2855 0.008999999999999897 L 1.6035 0.008999999999999897 L 1.2015 1.0739999999999998 L 0.9480000000000001 1.0739999999999998 L 0.792 0.6929999999999998 L 0.6375000000000001 1.0739999999999998 L 0.384 1.0739999999999998 L -0.018000000000000002 0.008999999999999897 L 0.2985 0.008999999999999897 L 0.5295 0.7349999999999999 L 0.603 0.5174999999999998 L 0.426 0.008999999999999897 M 1.8389787597656246 0.008999999999999897 L 2.1659787597656246 0.008999999999999897 L 2.504978759765625 1.0739999999999998 L 2.207978759765625 1.0739999999999998 L 2.1434787597656246 0.8654999999999998 L 1.8599787597656248 0.8654999999999998 L 1.7969787597656248 1.0739999999999998 L 1.4984787597656248 1.0739999999999998 L 1.8389787597656246 0.008999999999999897 M 2.0969787597656246 0.6704999999999999 L 2.0024787597656246 0.2954999999999999 L 1.9034787597656249 0.6704999999999999 L 2.0969787597656246 0.6704999999999999 M 3.2309736328124994 0.3569999999999999 Q 3.2309736328124994 0.3569999999999999 3.2054736328124993 0.34199999999999986 Q 3.1799736328124997 0.32699999999999985 3.1379736328124994 0.3082499999999998 Q 3.0959736328124996 0.28949999999999987 3.0464736328124995 0.27449999999999986 Q 2.9969736328124994 0.25949999999999984 2.9489736328124994 0.25949999999999984 Q 2.9114736328124993 0.25949999999999984 2.8874736328124992 0.27149999999999985 Q 2.8634736328124992 0.28349999999999986 2.8634736328124992 0.31199999999999983 Q 2.8634736328124992 0.33899999999999986 2.8874736328124992 0.3554999999999998 Q 2.9114736328124993 0.3719999999999998 2.9557236328124996 0.38549999999999984 Q 2.9999736328124995 0.3989999999999998 3.0614736328124996 0.41849999999999987 Q 3.1604736328124994 0.4484999999999998 3.2324736328124994 0.4874999999999998 Q 3.3044736328124995 0.5264999999999999 3.3434736328124997 0.5872499999999998 Q 3.3824736328124994 0.6479999999999999 3.3824736328124994 0.7484999999999998 Q 3.3824736328124994 0.8444999999999998 3.3479736328124994 0.9097499999999998 Q 3.3134736328124994 0.9749999999999999 3.2549736328124994 1.0139999999999998 Q 3.1964736328124994 1.053 3.1244736328124993 1.07025 Q 3.0524736328124993 1.0875 2.9774736328124995 1.0875 Q 2.9009736328124993 1.0875 2.8177236328124993 1.0717499999999998 Q 2.7344736328124997 1.0559999999999998 2.6564736328124994 1.0282499999999999 Q 2.5784736328124995 1.0005 2.5139736328124993 0.9629999999999999 L 2.6399736328124996 0.7064999999999999 Q 2.6399736328124996 0.7064999999999999 2.6699736328124994 0.7244999999999998 Q 2.6999736328124992 0.7424999999999998 2.7494736328124993 0.7649999999999999 Q 2.7989736328124994 0.7874999999999999 2.8597236328124995 0.8054999999999999 Q 2.9204736328124996 0.8234999999999999 2.9819736328124993 0.8234999999999999 Q 3.0299736328124993 0.8234999999999999 3.0487236328124996 0.8107499999999999 Q 3.0674736328124994 0.7979999999999998 3.0674736328124994 0.7769999999999999 Q 3.0674736328124994 0.7454999999999998 3.0344736328124995 0.7282499999999998 Q 3.0014736328124996 0.7109999999999999 2.9482236328124993 0.6952499999999998 Q 2.8949736328124995 0.6794999999999998 2.8304736328124993 0.6584999999999999 Q 2.7374736328124993 0.6269999999999998 2.6774736328124993 0.5872499999999998 Q 2.6174736328124997 0.5474999999999999 2.5889736328124995 0.4927499999999998 Q 2.5604736328124993 0.43799999999999983 2.5604736328124993 0.3599999999999999 Q 2.5604736328124993 0.24149999999999983 2.6159736328124996 0.1619999999999998 Q 2.6714736328124995 0.0824999999999998 2.7622236328124994 0.04124999999999979 Q 2.8529736328124993 -2.220446049250313e-16 2.9579736328124993 -2.220446049250313e-16 Q 3.0359736328124995 -2.220446049250313e-16 3.1087236328124996 0.018749999999999822 Q 3.1814736328124997 0.03749999999999987 3.2452236328124995 0.06449999999999978 Q 3.3089736328124992 0.0914999999999998 3.3569736328124993 0.11549999999999983 L 3.2309736328124994 0.3569999999999999 M 4.345480224609375 0.2639999999999998 L 4.039480224609375 0.2639999999999998 L 4.039480224609375 1.0739999999999998 L 3.7469802246093744 1.0739999999999998 L 3.7469802246093744 0.2639999999999998 L 3.4394802246093747 0.2639999999999998 L 3.4394802246093747 0.008999999999999897 L 4.345480224609375 0.008999999999999897 L 4.345480224609375 0.2639999999999998 M 5.215515380859375 0.8189999999999998 L 5.215515380859375 1.0739999999999998 L 4.456515380859375 1.0739999999999998 L 4.456515380859375 0.008999999999999897 L 5.2020153808593745 0.008999999999999897 L 5.2020153808593745 0.2639999999999998 L 4.749015380859375 0.2639999999999998 L 4.749015380859375 0.4139999999999998 L 5.136015380859375 0.4139999999999998 L 5.136015380859375 0.6509999999999998 L 4.749015380859375 0.6509999999999998 L 4.749015380859375 0.8189999999999998 L 5.215515380859375 0.8189999999999998 M 5.35649267578125 1.0739999999999998 L 5.35649267578125 0.008999999999999897 L 5.64899267578125 0.008999999999999897 L 5.64899267578125 0.8189999999999998 L 6.13199267578125 0.8189999999999998 L 6.13199267578125 1.0739999999999998 L 5.35649267578125 1.0739999999999998 M 6.31051318359375 0.008999999999999897 L 6.50101318359375 0.44399999999999984 L 6.696013183593751 0.008999999999999897 L 7.01401318359375 0.008999999999999897 L 6.6465131835937505 0.7214999999999998 L 6.6465131835937505 1.0739999999999998 L 6.35551318359375 1.0739999999999998 L 6.35551318359375 0.7184999999999999 L 5.99401318359375 0.008999999999999897 L 6.31051318359375 0.008999999999999897" fill="#431a10" fill-rule="nonzero"></path></g><g></g></g><defs><clipPath id="SvgjsClipPath57948"><path d=" M 0.4690475144988042 -5.784773554022214 h 6.063941592096141 v 5.534773554022214 h -6.063941592096141 Z"></path></clipPath><clipPath id="SvgjsClipPath5794696c324f5-419a-4307-8495-3fa5c3090337"><path d=" M 0.4690475144988042 -5.784773554022214 L 6.532989106594945 -5.784773554022214 L 6.532989106594945 -0.25 L 0.4690475144988042 -0.25 Z"></path></clipPath></defs></svg>